# Blender v2.79 (sub 0) OBJ File: ''
# www.blender.org
mtllib Cube.mtl
o RunnerCube
v -19.998898 14.999929 25.000019
v 19.999126 14.999929 25.000019
v -19.998898 14.999929 -25.000008
v 19.999126 -25.000021 -25.000008
v -19.998898 -25.000021 25.000019
v -19.998898 -25.000021 -25.000008
v 19.999126 -25.000021 25.000019
v 19.999126 14.999929 -25.000008
v -29.998877 25.000021 25.000019
v -19.998878 25.000021 25.000019
v -29.998877 25.000021 -25.000008
v -19.998878 -25.000021 -25.000008
v -29.998877 -25.000021 25.000019
v -29.998877 -25.000021 -25.000008
v -19.998878 -25.000021 25.000019
v -19.998878 25.000021 -25.000008
v 19.998989 25.000021 25.000019
v 29.998987 25.000021 25.000019
v 19.998989 25.000021 -25.000008
v 29.998987 -25.000021 -25.000008
v 19.998989 -25.000021 25.000019
v 19.998989 -25.000021 -25.000008
v 29.998987 -25.000021 25.000019
v 29.998987 25.000021 -25.000008
vt 0.813189 0.538658
vt 0.648260 0.538658
vt 0.813189 0.332487
vt 0.854431 0.331435
vt 0.648260 0.166507
vt 0.854431 0.166507
vt 0.648260 0.000526
vt 0.854431 0.165455
vt 0.648260 0.165455
vt 0.648260 0.539710
vt 0.813189 0.539710
vt 0.648260 0.745882
vt 0.814241 0.332487
vt 0.930866 0.449107
vt 0.814241 0.565737
vt 0.000526 0.750707
vt 0.206697 0.585770
vt 0.206697 0.750707
vt 0.647208 0.579909
vt 0.441037 0.579909
vt 0.441037 0.414972
vt 0.855483 0.000526
vt 0.972108 0.117157
vt 0.855483 0.233776
vt 0.207749 0.750707
vt 0.207749 0.585770
vt 0.413920 0.585770
vt 0.441037 0.580961
vt 0.647208 0.580961
vt 0.647208 0.745898
vt 0.605966 0.911886
vt 0.441037 0.911886
vt 0.441037 0.746949
vt 0.930866 0.800039
vt 0.814241 0.683409
vt 0.930866 0.566789
vt 0.091583 0.875163
vt 0.083497 0.834729
vt 0.293751 0.834730
vt 0.293751 0.833678
vt 0.083497 0.833678
vt 0.285664 0.793244
vt 0.648260 0.958240
vt 0.854431 0.999474
vt 0.648260 0.999474
vt 0.597879 0.912938
vt 0.605966 0.953372
vt 0.395712 0.953371
vt 0.042011 0.751759
vt 0.082445 0.759845
vt 0.042011 0.962013
vt 0.293148 0.000526
vt 0.293148 0.292096
vt 0.147363 0.146311
vt 0.647208 0.206697
vt 0.441037 0.206697
vt 0.441037 0.000526
vt 0.689745 0.746933
vt 0.730179 0.949101
vt 0.689746 0.957188
vt 0.000526 0.293148
vt 0.146311 0.438933
vt 0.000526 0.584718
vt 0.294200 0.293148
vt 0.439985 0.438933
vt 0.294200 0.584718
vt 0.973152 0.745882
vt 0.931918 0.745882
vt 0.931918 0.539710
vt 0.771664 0.957188
vt 0.731231 0.755020
vt 0.771664 0.746933
vt 0.091583 0.958134
vt 0.083497 0.917700
vt 0.293751 0.917700
vt 0.293751 0.792192
vt 0.083497 0.792192
vt 0.285664 0.751759
vt 0.395712 0.954423
vt 0.601882 0.995658
vt 0.395712 0.995658
vt 0.285664 0.876215
vt 0.293751 0.916648
vt 0.083497 0.916648
vt 0.000526 0.751759
vt 0.040959 0.759845
vt 0.000526 0.962013
vt 0.146311 0.000526
vt 0.146311 0.292096
vt 0.000526 0.146311
vt 0.647208 0.413920
vt 0.441037 0.413920
vt 0.441037 0.207749
vt 0.648260 0.746933
vt 0.688694 0.949101
vt 0.648260 0.957188
vt 0.294200 0.000526
vt 0.439985 0.146311
vt 0.294200 0.292096
vt 0.147363 0.293148
vt 0.293148 0.438933
vt 0.147363 0.584718
vt 0.973152 0.538658
vt 0.931918 0.538658
vt 0.931918 0.332487
vt 0.813150 0.957188
vt 0.772716 0.755020
vt 0.813150 0.746933
vn 0.0000 1.0000 0.0000
vn 0.0000 -1.0000 0.0000
vn 0.0000 0.0000 1.0000
vn -1.0000 0.0000 0.0000
vn 1.0000 0.0000 0.0000
vn 0.0000 0.0000 -1.0000
usemtl Material.001
s off
f 1/1/1 2/2/1 3/3/1
f 4/4/2 5/5/2 6/6/2
f 5/7/2 4/8/2 7/9/2
f 8/10/1 3/11/1 2/12/1
f 5/13/3 7/14/3 2/15/3
f 5/16/4 3/17/4 6/18/4
f 8/19/5 2/20/5 7/21/5
f 6/22/6 3/23/6 8/24/6
f 5/25/4 1/26/4 3/27/4
f 7/28/5 4/29/5 8/30/5
f 2/31/3 1/32/3 5/33/3
f 8/34/6 4/35/6 6/36/6
f 9/37/1 10/38/1 11/39/1
f 12/40/2 13/41/2 14/42/2
f 13/43/2 12/44/2 15/45/2
f 16/46/1 11/47/1 10/48/1
f 13/49/3 15/50/3 10/51/3
f 13/52/4 11/53/4 14/54/4
f 16/55/5 10/56/5 15/57/5
f 14/58/6 11/59/6 16/60/6
f 13/61/4 9/62/4 11/63/4
f 15/64/5 12/65/5 16/66/5
f 10/67/3 9/68/3 13/69/3
f 16/70/6 12/71/6 14/72/6
f 17/73/1 18/74/1 19/75/1
f 20/76/2 21/77/2 22/78/2
f 21/79/2 20/80/2 23/81/2
f 24/82/1 19/83/1 18/84/1
f 21/85/3 23/86/3 18/87/3
f 21/88/4 19/89/4 22/90/4
f 24/91/5 18/92/5 23/93/5
f 22/94/6 19/95/6 24/96/6
f 21/97/4 17/98/4 19/99/4
f 23/100/5 20/101/5 24/102/5
f 18/103/3 17/104/3 21/105/3
f 24/106/6 20/107/6 22/108/6
